<svg aria-hidden="true" style="position: absolute; width: 0; height: 0; overflow: hidden;" version="1.1" xmlns="http://www.w3.org/2000/svg" xmlns:xlink="http://www.w3.org/1999/xlink">
<defs>
<symbol id="icon-logo" viewBox="0 0 166 32">
<path fill="#fff" style="fill: var(--color1, #fff)" d="M16.778 0.847c1.657-0.548 2.228-0.689 2.887-0.781s1.271-0.088 1.93 0.010c0.658 0.098 1.227 0.245 2.879 0.81l11.72 4.013c1.586 0.543 2.121 0.858 2.647 1.309s0.913 0.993 1.169 1.637c0.256 0.644 0.38 1.252 0.38 2.93v18.475c0 0.822-0.085 1.119-0.246 1.42s-0.396 0.536-0.696 0.697-0.598 0.246-1.418 0.246h-35.478c-0.821 0-1.118-0.086-1.418-0.246s-0.535-0.396-0.696-0.697c-0.16-0.3-0.246-0.598-0.246-1.42v-18.435c0-1.69 0.127-2.302 0.387-2.95s0.653-1.192 1.186-1.643c0.533-0.45 1.074-0.763 2.677-1.294l12.337-4.083zM3.26 28.542h10.177v-15.545c0-0.68 0.551-1.231 1.231-1.231h11.246c0.68 0 1.231 0.551 1.231 1.231v15.545h10.177v-17.766c0-1.191-0.043-1.493-0.163-1.795-0.072-0.181-0.166-0.313-0.314-0.44-0.246-0.211-0.518-0.35-1.644-0.735l-11.72-4.013c-1.404-0.481-1.861-0.607-2.337-0.679-0.369-0.055-0.688-0.057-1.057-0.005-0.477 0.066-0.936 0.188-2.344 0.654l-12.337 4.083c-1.136 0.376-1.41 0.513-1.659 0.724-0.15 0.127-0.246 0.259-0.319 0.442-0.122 0.303-0.166 0.607-0.166 1.804v17.726z"></path>
<path fill="#fff" style="fill: var(--color1, #fff)" d="M47.855 11.023c0-0.348 0.159-0.522 0.477-0.522h10.452c0.188 0 0.322 0.053 0.401 0.158s0.119 0.237 0.119 0.397v1.913c0 0.13-0.045 0.246-0.136 0.348s-0.226 0.152-0.407 0.152h-7.709v3.304h5.941c0.145-0.014 0.26 0.016 0.347 0.092s0.13 0.205 0.13 0.386v1.967c0 0.13-0.036 0.246-0.108 0.348s-0.188 0.152-0.347 0.152h-5.963v3.956h7.991c0.202 0 0.336 0.043 0.401 0.13s0.097 0.221 0.097 0.402v1.978c0 0.304-0.159 0.456-0.477 0.456h-10.734c-0.13 0-0.242-0.036-0.336-0.109s-0.141-0.188-0.141-0.348v-15.162zM70.331 23.022c0.123-0.080 0.226-0.129 0.309-0.147s0.154-0.027 0.211-0.027c0.123 0.007 0.228 0.073 0.314 0.196l0.26 0.359 0.77 1.098c0.036 0.051 0.065 0.103 0.087 0.158s0.032 0.103 0.032 0.147c0 0.116-0.040 0.219-0.119 0.31s-0.184 0.183-0.314 0.277c-0.614 0.449-1.278 0.812-1.989 1.087s-1.494 0.413-2.347 0.413c-0.643 0-1.267-0.085-1.87-0.255s-1.167-0.409-1.691-0.717c-0.524-0.308-1.003-0.677-1.437-1.109s-0.808-0.911-1.122-1.44c-0.314-0.529-0.557-1.098-0.726-1.706s-0.255-1.243-0.255-1.902c0-0.659 0.085-1.293 0.255-1.902s0.412-1.177 0.726-1.706c0.314-0.529 0.688-1.009 1.122-1.44s0.913-0.801 1.437-1.109c0.524-0.308 1.088-0.547 1.691-0.717s1.227-0.255 1.87-0.255c0.802 0 1.561 0.123 2.277 0.369s1.352 0.58 1.908 1l-0.011-0.011c0.101 0.102 0.201 0.19 0.298 0.266s0.146 0.194 0.146 0.353c0 0.043-0.002 0.094-0.005 0.152s-0.023 0.112-0.060 0.163l-0.889 1.359c-0.145 0.217-0.304 0.326-0.477 0.326-0.123 0-0.26-0.062-0.412-0.185-0.369-0.312-0.799-0.565-1.29-0.761s-0.997-0.293-1.518-0.293c-0.564 0-1.093 0.118-1.588 0.353s-0.931 0.554-1.306 0.956c-0.376 0.402-0.672 0.87-0.889 1.402s-0.325 1.092-0.325 1.679c0 0.601 0.108 1.167 0.325 1.696s0.511 0.989 0.884 1.38c0.372 0.391 0.808 0.701 1.306 0.929s1.030 0.342 1.594 0.342c0.614 0 1.146-0.107 1.594-0.321s0.856-0.469 1.225-0.766zM73.28 19.761c0-0.659 0.085-1.295 0.255-1.907s0.41-1.183 0.721-1.712c0.311-0.529 0.683-1.009 1.117-1.44s0.914-0.801 1.442-1.109c0.528-0.308 1.093-0.547 1.697-0.717s1.234-0.255 1.892-0.255c0.651 0 1.279 0.085 1.887 0.255s1.173 0.409 1.697 0.717c0.524 0.308 1.003 0.678 1.437 1.109s0.806 0.911 1.117 1.44c0.311 0.529 0.551 1.099 0.721 1.712s0.255 1.248 0.255 1.907c0 0.659-0.085 1.293-0.255 1.902s-0.41 1.176-0.721 1.701-0.683 1.005-1.117 1.44c-0.434 0.435-0.913 0.806-1.437 1.114s-1.090 0.547-1.697 0.717c-0.607 0.17-1.236 0.255-1.887 0.255-0.658 0-1.288-0.085-1.892-0.255s-1.169-0.409-1.697-0.717c-0.528-0.308-1.008-0.679-1.442-1.114s-0.806-0.915-1.117-1.44c-0.311-0.525-0.551-1.092-0.721-1.701s-0.255-1.243-0.255-1.902zM76.337 19.761c0 0.58 0.101 1.129 0.304 1.647s0.484 0.969 0.846 1.353c0.361 0.384 0.79 0.688 1.285 0.913s1.035 0.337 1.621 0.337c0.571 0 1.101-0.112 1.588-0.337s0.909-0.529 1.263-0.913c0.354-0.384 0.631-0.835 0.829-1.353s0.298-1.067 0.298-1.647c0-0.572-0.099-1.119-0.298-1.641s-0.475-0.98-0.829-1.375c-0.354-0.395-0.775-0.71-1.263-0.946s-1.017-0.353-1.588-0.353c-0.585 0-1.126 0.118-1.621 0.353s-0.923 0.551-1.285 0.946c-0.361 0.395-0.643 0.853-0.846 1.375s-0.304 1.069-0.304 1.641zM102.98 11.675c0.087 0.051 0.159 0.112 0.217 0.185s0.087 0.159 0.087 0.261c0 0.080-0.022 0.163-0.065 0.25l-1.052 1.793c-0.123 0.167-0.253 0.25-0.39 0.25-0.043 0-0.094-0.009-0.152-0.027s-0.116-0.045-0.174-0.082c-0.455-0.326-0.943-0.58-1.464-0.761s-1.073-0.272-1.659-0.272c-0.737 0-1.413 0.139-2.027 0.418s-1.146 0.658-1.594 1.136c-0.448 0.478-0.797 1.040-1.046 1.685s-0.374 1.337-0.374 2.076c0 0.732 0.125 1.418 0.374 2.060s0.598 1.201 1.046 1.679c0.448 0.478 0.979 0.855 1.594 1.13s1.29 0.413 2.027 0.413c0.585 0 1.144-0.091 1.675-0.272s1.021-0.435 1.469-0.761c0.058-0.043 0.118-0.073 0.179-0.087s0.114-0.025 0.157-0.033c0.123 0 0.249 0.080 0.379 0.239l1.073 1.815c0.043 0.087 0.065 0.167 0.065 0.239 0 0.101-0.031 0.185-0.092 0.25s-0.132 0.127-0.211 0.185c-0.679 0.456-1.411 0.81-2.195 1.060s-1.61 0.375-2.477 0.375c-0.766 0-1.502-0.098-2.206-0.294s-1.364-0.475-1.979-0.837c-0.614-0.362-1.173-0.795-1.675-1.299s-0.934-1.062-1.296-1.674c-0.361-0.612-0.64-1.272-0.835-1.978s-0.293-1.444-0.293-2.212c0-0.768 0.098-1.505 0.293-2.212s0.473-1.369 0.835-1.989c0.361-0.62 0.793-1.183 1.296-1.69s1.061-0.94 1.675-1.299 1.274-0.638 1.979-0.837c0.705-0.199 1.44-0.299 2.206-0.299 0.86 0 1.677 0.121 2.45 0.364s1.5 0.592 2.179 1.049zM118.972 26c0 0.13-0.027 0.237-0.081 0.321s-0.125 0.149-0.211 0.196c-0.087 0.047-0.186 0.080-0.298 0.098s-0.23 0.027-0.352 0.027h-1.355c-0.231 0-0.392-0.062-0.482-0.185s-0.157-0.279-0.201-0.467l-0.065-0.924c-0.253 0.254-0.533 0.491-0.84 0.712s-0.638 0.413-0.992 0.576c-0.354 0.163-0.73 0.29-1.128 0.38s-0.806 0.136-1.225 0.136c-0.651 0-1.278-0.085-1.881-0.255s-1.169-0.409-1.697-0.717-1.007-0.679-1.437-1.114c-0.43-0.435-0.799-0.917-1.106-1.446s-0.546-1.098-0.716-1.706c-0.17-0.609-0.255-1.243-0.255-1.902s0.085-1.293 0.255-1.902c0.17-0.609 0.408-1.177 0.716-1.706s0.676-1.009 1.106-1.44c0.43-0.431 0.909-0.801 1.437-1.109s1.093-0.547 1.697-0.717c0.604-0.17 1.231-0.255 1.881-0.255 0.463 0 0.903 0.049 1.323 0.147s0.811 0.235 1.176 0.413c0.365 0.177 0.703 0.391 1.014 0.641s0.593 0.524 0.846 0.821l0.152-1.163c0.036-0.13 0.070-0.237 0.103-0.321s0.072-0.15 0.119-0.201c0.047-0.051 0.107-0.085 0.179-0.103s0.163-0.027 0.271-0.027h1.084c0.116 0 0.231 0.011 0.347 0.033s0.221 0.056 0.314 0.103c0.094 0.047 0.168 0.112 0.222 0.196s0.081 0.187 0.081 0.31v12.553zM107.696 19.728c0 0.58 0.101 1.129 0.303 1.647s0.484 0.973 0.846 1.364c0.361 0.391 0.786 0.701 1.274 0.929s1.021 0.342 1.599 0.342c0.585 0 1.133-0.114 1.643-0.342s0.952-0.538 1.328-0.929 0.672-0.846 0.889-1.364c0.217-0.518 0.325-1.067 0.325-1.647 0-0.572-0.108-1.118-0.325-1.636s-0.513-0.973-0.889-1.364c-0.376-0.391-0.819-0.703-1.328-0.935s-1.057-0.348-1.643-0.348c-0.578 0-1.111 0.116-1.599 0.348s-0.912 0.543-1.274 0.935c-0.361 0.391-0.643 0.846-0.846 1.364s-0.303 1.063-0.303 1.636zM123.97 25.989c-0.065 0.217-0.137 0.38-0.212 0.489-0.076 0.109-0.223 0.163-0.439 0.163h-1.637c-0.455 0-0.683-0.217-0.683-0.652v-16.597c0-0.188 0.065-0.344 0.195-0.467s0.278-0.185 0.444-0.185h1.789c0.217 0 0.386 0.063 0.51 0.19s0.185 0.281 0.185 0.462v4.989c0.521-0.536 1.119-0.964 1.794-1.283s1.451-0.478 2.325-0.478c0.976 0 1.886 0.187 2.727 0.56s1.575 0.882 2.201 1.527c0.625 0.645 1.115 1.4 1.47 2.266s0.53 1.795 0.53 2.788c0 0.985-0.176 1.911-0.53 2.777s-0.844 1.621-1.47 2.266c-0.625 0.645-1.359 1.154-2.201 1.527s-1.751 0.56-2.727 0.56c-0.426 0-0.834-0.047-1.225-0.141s-0.763-0.223-1.116-0.386c-0.354-0.163-0.686-0.357-0.992-0.581-0.308-0.225-0.588-0.464-0.841-0.717l-0.097 0.924zM132.123 19.761c0-0.572-0.101-1.119-0.304-1.641-0.202-0.522-0.484-0.98-0.846-1.375-0.361-0.395-0.788-0.71-1.279-0.946-0.492-0.236-1.023-0.353-1.594-0.353-0.578 0-1.122 0.118-1.632 0.353s-0.954 0.551-1.333 0.946c-0.38 0.395-0.678 0.853-0.895 1.375s-0.325 1.069-0.325 1.641v0.076c0.006 0.572 0.122 1.11 0.346 1.614 0.225 0.504 0.524 0.946 0.901 1.326 0.375 0.38 0.815 0.681 1.317 0.902s1.042 0.331 1.621 0.331c0.571 0 1.102-0.112 1.594-0.337 0.491-0.225 0.918-0.529 1.279-0.913 0.362-0.384 0.644-0.835 0.846-1.353 0.203-0.518 0.304-1.067 0.304-1.647zM136.828 13.501c0-0.188 0.054-0.346 0.162-0.473s0.268-0.19 0.478-0.19h1.799c0.080 0 0.161 0.016 0.245 0.049 0.082 0.033 0.156 0.080 0.222 0.141s0.119 0.132 0.162 0.212c0.043 0.080 0.065 0.167 0.065 0.261v12.488c0 0.435-0.228 0.652-0.683 0.652h-1.799c-0.434 0-0.651-0.217-0.651-0.652v-12.488zM136.828 8.697c0-0.435 0.213-0.652 0.64-0.652h1.822c0.202 0 0.364 0.054 0.487 0.163s0.185 0.272 0.185 0.489v1.619c0 0.167-0.058 0.324-0.174 0.473s-0.278 0.223-0.487 0.223h-1.822c-0.434 0-0.651-0.232-0.651-0.696v-1.619zM142.683 13.479c0-0.101 0.043-0.21 0.13-0.326 0.086-0.116 0.17-0.188 0.249-0.217 0.058-0.058 0.145-0.089 0.261-0.092s0.224-0.005 0.325-0.005h1.095c0.209 0 0.364 0.069 0.466 0.207 0.101 0.138 0.17 0.29 0.206 0.457l0.119 1.152c0.166-0.246 0.37-0.489 0.613-0.728 0.241-0.239 0.529-0.453 0.862-0.641s0.711-0.341 1.138-0.457c0.426-0.116 0.907-0.174 1.442-0.174 0.853 0 1.611 0.154 2.276 0.462 0.666 0.308 1.226 0.73 1.681 1.266s0.8 1.167 1.035 1.891c0.235 0.725 0.352 1.503 0.352 2.337v7.249c0 0.261-0.060 0.456-0.183 0.587s-0.3 0.196-0.532 0.196h-1.648c-0.289 0-0.482-0.054-0.58-0.163-0.098-0.109-0.146-0.301-0.146-0.576v-7.239c0-0.384-0.065-0.759-0.196-1.125-0.129-0.366-0.32-0.694-0.569-0.984-0.25-0.29-0.559-0.522-0.927-0.695-0.369-0.174-0.795-0.261-1.28-0.261-0.332 0-0.677 0.067-1.035 0.201s-0.686 0.324-0.981 0.571c-0.297 0.246-0.543 0.545-0.737 0.897-0.196 0.351-0.297 0.748-0.304 1.19v7.043c0 0.138-0.007 0.275-0.022 0.413-0.014 0.138-0.044 0.261-0.092 0.37-0.047 0.109-0.113 0.196-0.199 0.261-0.087 0.065-0.199 0.098-0.337 0.098h-1.788c-0.239 0-0.414-0.056-0.526-0.169s-0.169-0.273-0.169-0.484v-12.51zM158.079 22.75c0.151 0.239 0.343 0.446 0.575 0.62s0.468 0.317 0.71 0.429c0.242 0.112 0.474 0.194 0.694 0.245s0.395 0.076 0.526 0.076c0.202 0 0.441-0.022 0.715-0.065 0.276-0.043 0.534-0.121 0.775-0.234 0.242-0.112 0.448-0.265 0.618-0.456s0.255-0.437 0.255-0.734c0-0.29-0.066-0.525-0.201-0.706-0.133-0.181-0.314-0.332-0.542-0.451s-0.487-0.219-0.78-0.299c-0.293-0.080-0.602-0.167-0.927-0.261-0.759-0.203-1.407-0.447-1.941-0.734-0.535-0.286-0.975-0.614-1.318-0.984s-0.594-0.775-0.753-1.217-0.239-0.924-0.239-1.446c0-0.587 0.116-1.123 0.347-1.609s0.556-0.902 0.976-1.25c0.42-0.348 0.923-0.618 1.513-0.81s1.242-0.288 1.957-0.288c0.506 0 0.958 0.045 1.355 0.136s0.767 0.226 1.106 0.408c0.34 0.181 0.66 0.409 0.959 0.685 0.3 0.275 0.606 0.598 0.917 0.967 0.108 0.13 0.162 0.257 0.162 0.38 0 0.13-0.073 0.254-0.217 0.37-0.108 0.087-0.238 0.196-0.385 0.326s-0.294 0.257-0.439 0.38c-0.144 0.123-0.282 0.228-0.412 0.315-0.129 0.087-0.238 0.13-0.325 0.13-0.159 0-0.314-0.094-0.466-0.283-0.159-0.188-0.318-0.353-0.476-0.495s-0.326-0.257-0.498-0.348c-0.174-0.091-0.362-0.159-0.565-0.207-0.202-0.047-0.422-0.071-0.661-0.071-0.194 0-0.399 0.029-0.613 0.087-0.213 0.058-0.407 0.145-0.585 0.261s-0.326 0.255-0.444 0.418c-0.119 0.163-0.18 0.346-0.18 0.549 0 0.232 0.074 0.429 0.223 0.592 0.148 0.163 0.336 0.304 0.564 0.424s0.475 0.219 0.742 0.299c0.268 0.080 0.517 0.152 0.748 0.217 0.665 0.188 1.276 0.406 1.833 0.652s1.035 0.545 1.436 0.897c0.401 0.351 0.714 0.764 0.938 1.239s0.336 1.031 0.336 1.668c0 0.674-0.134 1.277-0.401 1.81s-0.638 0.984-1.111 1.353c-0.473 0.37-1.034 0.652-1.68 0.848-0.647 0.196-1.35 0.294-2.11 0.294-0.455 0-0.917-0.049-1.387-0.147s-0.919-0.25-1.35-0.456c-0.43-0.207-0.827-0.471-1.193-0.793-0.364-0.322-0.671-0.705-0.916-1.147-0.108-0.181-0.162-0.344-0.162-0.489 0-0.094 0.023-0.176 0.070-0.245s0.11-0.136 0.19-0.201l1.215-0.935c0.108-0.065 0.206-0.098 0.292-0.098 0.102 0 0.192 0.034 0.272 0.103 0.079 0.069 0.166 0.161 0.26 0.277z"></path>
</symbol>
</defs>
</svg>
